<svg width="235" height="246" viewBox="0 0 235 246" fill="none" xmlns="http://www.w3.org/2000/svg">
<path d="M149.922 132.254C140.781 122.607 148.348 109.142 148.348 109.142L171.682 107.553C171.682 107.553 174.171 117.877 163.726 118.588C153.282 119.3 175.145 125.625 175.145 125.625C175.145 125.625 196.56 128.632 206.176 138.694C215.791 148.756 203.133 166.139 203.133 166.139C203.133 166.139 197.91 171.407 196.849 175.498C195.788 179.589 199.091 178.917 201.868 183.64C204.646 188.363 194.206 192.422 194.206 192.422C194.206 192.422 184.609 195.755 179.201 185.183C173.792 174.612 191.996 159.977 184.992 152.193C177.987 144.409 159.063 141.902 149.922 132.254Z" fill="#E5F1FF"/>
<path d="M146.535 128.323C143.98 120.488 146.002 115.552 146.002 115.552L153.102 113.649C153.102 113.649 152.773 126.19 165.249 132.301C177.726 138.413 193.66 144.52 194.487 151.908C195.314 159.297 179.935 173.334 179.935 173.334C187.89 154.829 191.847 151.924 165.32 142.89C164.886 143.099 149.091 136.157 146.535 128.323Z" fill="#C5E0FE"/>
<path d="M115.307 140.567C116.925 128.475 118.514 121.46 118.514 121.46L133.327 124.08C133.327 124.08 127.34 143.171 141.374 154.11C155.409 165.048 160.463 158.878 168.213 172.261C175.963 185.643 165.453 193.033 160.241 203.796C155.029 214.558 158.673 218.662 151.755 218.742L144.558 218.643C144.558 218.643 126.802 221.44 143.716 199.101C160.63 176.762 129.423 168.21 129.423 168.21C129.423 168.21 122.068 165.897 117.203 160.587C112.902 155.893 114.457 146.917 115.307 140.567Z" fill="#E5F1FF"/>
<path d="M134.744 120.875L118.56 122.445C113.28 145.36 112.389 153.616 116.931 160.24C123.242 153.476 128.904 152.646 139.491 152.349C139.491 152.349 130.67 145.258 133.15 132.141C135.631 119.023 134.744 120.875 134.744 120.875Z" fill="#C5E0FE"/>
<path d="M80.7851 171.235C78.5322 159.386 85.0613 136.42 85.0613 136.42L102.008 131.879C102.008 131.879 105.1 155.264 105.098 164.72C105.095 174.175 117.786 180.229 117.786 180.229C117.786 180.229 128.284 187.562 123.091 200.023C117.898 212.484 112.107 216.893 106.049 214.737C100.148 212.636 106.731 204.407 101.032 196.018C95.3337 187.629 83.038 183.084 80.7851 171.235Z" fill="#E5F1FF"/>
<path d="M102.446 131.144L88.8916 134.777C88.8916 134.777 87.57 168.569 96.7768 176.248C105.984 183.928 120.776 183.192 120.776 183.192C118.11 179.126 110.229 176.197 106.853 168.244C103.99 161.863 102.446 131.144 102.446 131.144Z" fill="#C5E0FE"/>
<path d="M46.1729 181.7C49.6055 161.002 69.5438 140.578 69.5438 140.578L78.9955 138.045C78.9955 138.045 70.3192 162.373 67.9484 175.864C65.5775 189.355 71.5401 192.702 89.7144 202.418C107.889 212.134 100.842 227.619 89.4574 230.67C78.0724 233.721 73.961 235.565 72.3575 231.297C70.7541 227.029 86.5698 219.577 78.5183 215.307C70.4668 211.037 42.7402 202.398 46.1729 181.7Z" fill="#E5F1FF"/>
<path d="M79.6352 204.363C85.0718 203.137 87.0349 200.996 87.0349 200.996C87.0349 200.996 69.4037 193.038 67.9604 184.892C66.5172 176.747 69.8334 167.787 69.8334 167.787L78.0373 141.605L71.7877 142.357C71.7877 142.357 53.244 177.306 58.1367 188.678C63.0293 200.05 74.1987 205.589 79.6352 204.363Z" fill="#C5E0FE"/>
<path d="M202.217 78.3487C213.808 121.602 171.402 113.513 121.376 126.919C71.35 140.325 32.6473 170.15 21.0563 126.897C9.46524 83.6435 43.6352 36.9051 93.6613 23.499C143.687 10.0928 190.626 35.0957 202.217 78.3487Z" fill="#E5F1FF"/>
<path d="M154.088 96.1142C159.346 117.966 137.176 113.601 110.573 120.001C83.9705 126.402 63.0092 141.145 57.7514 119.293C52.4937 97.4411 71.3989 74.1522 98.0015 67.7515C124.604 61.3508 148.83 74.262 154.088 96.1142Z" fill="#C5E0FE"/>
<path d="M115.023 100.093C115.82 103.317 121.694 104.639 128.143 103.045C134.592 101.451 139.174 97.545 138.377 94.3205C137.58 91.096 132.401 92.5852 125.952 94.1791C119.503 95.7731 114.226 96.868 115.023 100.093Z" fill="#F58F90"/>
<circle cx="5.79142" cy="5.79142" r="5.79142" transform="matrix(-0.978567 0.205927 0.205927 0.978567 157.029 86.7522)" fill="#FFBABA"/>
<circle cx="5.36799" cy="5.36799" r="5.36799" transform="matrix(-0.961993 -0.273076 -0.273076 0.961993 156.131 82.4861)" fill="#2F291D"/>
<circle cx="5.36799" cy="5.36799" r="5.36799" transform="matrix(-0.961993 -0.273076 -0.273076 0.961993 156.131 82.4861)" fill="#2F291D"/>
<circle cx="5.79142" cy="5.79142" r="5.79142" transform="matrix(-0.978567 0.205927 0.205927 0.978567 103.843 97.9447)" fill="#FFBABA"/>
<circle cx="5.36799" cy="5.36799" r="5.36799" transform="matrix(-0.961993 -0.273076 -0.273076 0.961993 107.581 94.0687)" fill="#2F291D"/>
<circle cx="5.36799" cy="5.36799" r="5.36799" transform="matrix(-0.961993 -0.273076 -0.273076 0.961993 107.581 94.0687)" fill="#2F291D"/>
<circle cx="137.631" cy="43.0041" r="4.90043" transform="rotate(-15.0018 137.631 43.0041)" fill="white"/>
<path d="M167.888 94.0164C167.527 98.7272 167.152 103.583 170.663 103.853C174.175 104.122 177.315 100.521 177.676 95.8107C178.038 91.0999 175.484 87.0627 171.972 86.7933C168.46 86.524 168.25 89.3056 167.888 94.0164Z" fill="#C5E0FE"/>
</svg>
