<svg width="294" height="383" viewBox="0 0 294 383" fill="none" xmlns="http://www.w3.org/2000/svg">
<circle cx="159.302" cy="15.5676" r="15.5676" fill="#506D98" fill-opacity="0.75"/>
<circle cx="205.263" cy="20.0157" r="15.5676" fill="#506D98" fill-opacity="0.75"/>
<circle cx="170.792" cy="53.0037" r="9.26643" fill="#506D98" fill-opacity="0.75"/>
<path d="M22.9934 274.355C14.8218 209.763 65.7788 150.116 136.809 141.129C207.84 132.143 272.045 177.221 280.217 241.814C288.389 306.406 236.35 357.505 165.32 366.492C94.2895 375.478 31.165 338.948 22.9934 274.355Z" fill="#FFA767"/>
<circle cx="78.6056" cy="236.179" r="11.3988" transform="rotate(-7.21021 78.6056 236.179)" fill="#FF6767"/>
<circle cx="79.5012" cy="220.398" r="10.5654" transform="rotate(-34.9414 79.5012 220.398)" fill="#2F291D"/>
<circle cx="79.5012" cy="220.398" r="10.5654" transform="rotate(-34.9414 79.5012 220.398)" fill="#2F291D"/>
<circle cx="172.555" cy="224.294" r="11.3988" transform="rotate(-7.21021 172.555 224.294)" fill="#FF6767"/>
<circle cx="165.082" cy="212.222" r="10.5654" transform="rotate(-34.9414 165.082 212.222)" fill="#2F291D"/>
<circle cx="165.082" cy="212.222" r="10.5654" transform="rotate(-34.9414 165.082 212.222)" fill="#2F291D"/>
<ellipse cx="202.591" cy="163.549" rx="6.65266" ry="8.98109" transform="rotate(-56.1324 202.591 163.549)" fill="white"/>
<path d="M214.149 98.3329C173.939 110.352 192.606 138.251 171.303 136.067L187.884 137.766C203.897 128.971 222.394 124.164 214.149 98.3329Z" fill="#44C2BB"/>
<path d="M227.071 110.648C185.676 117.558 200.717 147.567 179.853 142.743L196.092 146.498C213.078 139.769 232.03 137.306 227.071 110.648Z" fill="#32938D"/>
<rect x="168.858" y="108.257" width="18.016" height="33.3906" rx="7.83305" transform="rotate(4.8036 168.858 108.257)" fill="#2F291D"/>
<ellipse cx="151.059" cy="136.636" rx="9.79131" ry="9.008" transform="rotate(6.33198 151.059 136.636)" fill="#FEA15D"/>
<ellipse cx="196.991" cy="141.732" rx="9.79131" ry="9.008" transform="rotate(6.33198 196.991 141.732)" fill="#FEA15D"/>
<ellipse cx="183.194" cy="138.231" rx="9.79131" ry="10.9663" transform="rotate(6.33198 183.194 138.231)" fill="#FEA15D"/>
<ellipse cx="168.402" cy="136.59" rx="9.79131" ry="10.9663" transform="rotate(6.33198 168.402 136.59)" fill="#FEA15D"/>
<path d="M164.439 250.304C166.874 269.552 163.129 278.339 135.388 281.849C107.646 285.358 93.8259 278.794 91.3908 259.545C88.9556 240.297 106.656 234.163 124.008 231.968C141.36 229.772 162.004 231.055 164.439 250.304Z" fill="#6190D7"/>
<path d="M201.399 192.963L258.084 188.555C263.035 195.422 265.533 199.34 269.429 206.464L202.825 204.231L201.399 192.963Z" fill="#FFE879"/>
<path d="M24.8317 235.83L40.6244 238.964L32.6682 213.52C28.9366 221.67 27.1124 226.474 24.8317 235.83Z" fill="#FFE879"/>
<path d="M153.464 243.227C120.2 182.32 112.344 190.123 98.6108 252.75C83.6028 261.277 70.406 266.977 56.1711 251.193C41.9362 235.408 34.0513 206.877 41.692 199.156C54.643 186.069 183.158 169.021 196.726 179.542C204.882 185.866 200.953 212.958 192.554 233.939C184.155 254.919 165.58 247.091 153.464 243.227Z" fill="white" fill-opacity="0.33" stroke="#FFF0A8" stroke-width="12.5329"/>
<path d="M229.445 62.0704L221.068 53.8311L204.589 70.5841L212.966 78.8234L229.445 62.0704ZM244.269 112.061L255.85 114.039L255.953 113.436L255.993 112.827L244.269 112.061ZM157.738 251.477C151.279 250.845 145.531 255.568 144.899 262.026C144.267 268.484 148.99 274.232 155.448 274.864L157.738 251.477ZM212.966 78.8234C216.706 82.5026 220.459 85.2767 223.204 87.3654C226.156 89.6114 227.859 91.0095 229.155 92.5348C230.939 94.6352 233.378 98.53 232.544 111.295L255.993 112.827C257.06 96.4999 254.181 85.6997 247.065 77.3221C243.911 73.6084 240.269 70.8217 237.434 68.6647C234.392 66.3503 231.918 64.5032 229.445 62.0704L212.966 78.8234ZM244.269 112.061C232.687 110.083 232.687 110.082 232.687 110.082C232.687 110.083 232.687 110.083 232.686 110.084C232.686 110.086 232.686 110.09 232.685 110.095C232.683 110.105 232.68 110.121 232.677 110.142C232.669 110.186 232.657 110.253 232.642 110.344C232.61 110.524 232.563 110.797 232.5 111.156C232.374 111.875 232.185 112.94 231.937 114.31C231.442 117.05 230.71 121.005 229.773 125.842C227.896 135.523 225.201 148.691 221.922 162.677C218.635 176.692 214.8 191.369 210.659 204.12C206.406 217.213 202.195 227.09 198.508 232.352L217.752 245.838C223.613 237.474 228.695 224.659 233.008 211.379C237.433 197.756 241.439 182.377 244.8 168.041C248.169 153.674 250.927 140.193 252.842 130.314C253.801 125.37 254.55 121.317 255.061 118.493C255.316 117.081 255.512 115.976 255.645 115.22C255.712 114.842 255.762 114.551 255.797 114.352C255.814 114.253 255.827 114.177 255.836 114.124C255.84 114.098 255.844 114.078 255.846 114.063C255.848 114.056 255.848 114.051 255.849 114.047C255.85 114.045 255.85 114.043 255.85 114.042C255.85 114.04 255.85 114.039 244.269 112.061ZM198.508 232.352C191.023 243.033 180.953 247.812 172.362 249.95C168.053 251.023 164.224 251.396 161.51 251.5C160.161 251.552 159.113 251.536 158.451 251.512C158.12 251.5 157.888 251.486 157.765 251.478C157.704 251.473 157.67 251.471 157.665 251.47C157.662 251.47 157.667 251.47 157.679 251.471C157.685 251.472 157.693 251.473 157.703 251.474C157.708 251.474 157.713 251.475 157.719 251.475C157.722 251.475 157.726 251.476 157.728 251.476C157.733 251.477 157.738 251.477 156.593 263.171C155.448 274.864 155.454 274.865 155.459 274.865C155.461 274.866 155.466 274.866 155.47 274.866C155.478 274.867 155.486 274.868 155.495 274.869C155.513 274.871 155.532 274.872 155.554 274.874C155.598 274.878 155.649 274.883 155.708 274.888C155.827 274.898 155.978 274.909 156.159 274.922C156.52 274.947 157.003 274.974 157.597 274.996C158.783 275.039 160.419 275.058 162.41 274.982C166.375 274.83 171.85 274.294 178.038 272.754C190.441 269.667 206.14 262.408 217.752 245.838L198.508 232.352Z" fill="#C5E0FE"/>
<circle cx="186.448" cy="330.656" r="7.04974" transform="rotate(-7.21021 186.448 330.656)" fill="#FF8934"/>
<circle cx="260.948" cy="251.752" r="7.04974" transform="rotate(-7.21021 260.948 251.752)" fill="#FF8934"/>
<circle cx="133.764" cy="313.636" r="7.04974" transform="rotate(-7.21021 133.764 313.636)" fill="#FF8934"/>
<circle cx="247.204" cy="286.651" r="7.04974" transform="rotate(-7.21021 247.204 286.651)" fill="#FF8934"/>
<circle cx="175.817" cy="302.789" r="7.04974" transform="rotate(-7.21021 175.817 302.789)" fill="#FF8934"/>
<circle cx="219.944" cy="314.576" r="7.04974" transform="rotate(-7.21021 219.944 314.576)" fill="#FF8934"/>
<circle cx="151.587" cy="342.173" r="7.04974" transform="rotate(-7.21021 151.587 342.173)" fill="#FF8934"/>
<circle cx="110.292" cy="340.291" r="7.04974" transform="rotate(-7.21021 110.292 340.291)" fill="#FF8934"/>
<circle cx="211.536" cy="279.32" r="7.04974" transform="rotate(-7.21021 211.536 279.32)" fill="#FF8934"/>
</svg>
