<svg width="215" height="113" viewBox="0 0 215 113" fill="none" xmlns="http://www.w3.org/2000/svg">
<path d="M35 59.4321C133.976 -9.81274 214.304 -9.56236 214.974 71.4446C212.525 81.3542 209.078 90.363 198.771 91.0303C198.771 91.0303 202.42 103.129 184.846 108.767C167.271 114.405 108.469 115.807 75.3373 94.3406C42.2055 72.8746 35 59.4321 35 59.4321Z" fill="#E5F1FF"/>
<path d="M198.481 91C188.366 91.6132 183.489 92.0899 174 91.6603L195.826 102.007C198.172 99.0273 199.207 95.7998 198.481 91Z" fill="#C5E0FE"/>
<path d="M118.981 55.7304C126.315 57.0428 135.126 70.9296 135.126 70.9296C135.126 70.9296 125.831 81.5336 119.206 82.9614C112.582 84.3893 111.647 54.418 118.981 55.7304Z" fill="#C5E0FE"/>
<path d="M83.5393 31.7325L127.8 15.3471C127.8 15.3471 110.95 -2.13492 95.1885 1.42836C79.4276 4.99164 78.2065 15.7578 83.5393 31.7325Z" fill="#C5E0FE"/>
<path d="M36.187 62.3811C36.187 62.3811 34.6956 47.9758 18.8532 41.6991C3.01073 35.4225 -9.69022 49.2585 11.6442 55.4897C32.9786 61.7208 36.187 62.3811 36.187 62.3811C18.8689 62.5093 5.48858 68.3561 10.6837 77.6958C15.8789 87.0356 22.1916 85.6107 29.448 77.5405C36.7043 69.4703 36.187 62.3811 36.187 62.3811Z" fill="#C5E0FE"/>
<circle cx="160" cy="85" r="6" fill="#FFBABA"/>
<circle cx="167" cy="78" r="7" fill="#2F291D"/>
</svg>
