<svg width="396" height="273" viewBox="0 0 396 273" fill="none" xmlns="http://www.w3.org/2000/svg">
<circle cx="254.719" cy="242.449" r="13.7934" transform="rotate(35.9684 254.719 242.449)" fill="#506D98" fill-opacity="0.75"/>
<circle cx="250.138" cy="208.412" r="8.55542" transform="rotate(35.9684 250.138 208.412)" fill="#506D98" fill-opacity="0.75"/>
<path d="M219.213 53.5509L279.991 39.2587C279.991 39.2587 260.72 13.5603 239.448 15.6677C218.176 17.7751 214.817 31.7096 219.213 53.5509Z" fill="#C5E0FE"/>
<path d="M150.68 82.1663C291.908 7.4041 397.321 20.8335 384.989 127.288C380.158 139.898 374.164 151.163 360.525 150.358C360.525 150.358 363.342 166.836 339.351 171.371C315.359 175.906 237.935 168.156 197.941 134.573C157.947 100.989 150.68 82.1663 150.68 82.1663Z" fill="#E5F1FF"/>
<path d="M152.051 86.0638C152.051 86.0638 152.443 66.9093 132.669 56.0857C112.894 45.262 93.9643 61.3544 120.956 73.0141C147.947 84.6737 152.051 86.0638 152.051 86.0638C129.295 83.4077 110.776 88.9011 116.073 102.01C121.37 115.118 129.89 114.277 140.732 104.866C151.574 95.4548 152.051 86.0638 152.051 86.0638Z" fill="#C5E0FE"/>
<path d="M261.827 90.8353C271.241 93.7543 280.543 113.422 280.543 113.422C280.543 113.422 266.611 125.827 257.681 126.621C248.752 127.415 252.413 87.9163 261.827 90.8353Z" fill="#C5E0FE"/>
<path d="M360.376 150.357C346.997 149.512 340.515 149.343 328.129 147.231L355.095 164.374C358.661 160.845 360.546 156.777 360.376 150.357Z" fill="#C5E0FE"/>
<circle cx="7.87094" cy="7.87094" r="7.87094" transform="matrix(-0.993358 -0.115066 -0.115066 0.993358 320.086 129.843)" fill="#FFBABA"/>
<circle cx="9.11188" cy="9.11188" r="9.11188" transform="matrix(-0.825719 -0.564082 -0.564082 0.825719 334.546 126.036)" fill="#2F291D"/>
<circle cx="9.11188" cy="9.11188" r="9.11188" transform="matrix(-0.825719 -0.564082 -0.564082 0.825719 334.546 126.036)" fill="#2F291D"/>
<path d="M84.2436 190.981L128.504 174.596C128.504 174.596 111.654 157.114 95.8928 160.677C80.1318 164.24 78.9108 175.007 84.2436 190.981Z" fill="#C5E0FE"/>
<path d="M35.5002 218.834C134.476 149.589 214.804 149.84 215.474 230.847C213.025 240.756 209.578 249.765 199.272 250.433C199.272 250.433 202.921 262.531 185.346 268.169C167.771 273.807 108.969 275.209 75.8375 253.743C42.7057 232.277 35.5002 218.834 35.5002 218.834Z" fill="#E5F1FF"/>
<path d="M36.8914 221.63C36.8914 221.63 35.4 207.225 19.5575 200.948C3.71508 194.671 -8.98587 208.507 12.3485 214.738C33.6829 220.97 36.8914 221.63 36.8914 221.63C19.5733 221.758 6.19292 227.605 11.3881 236.945C16.5833 246.284 22.896 244.859 30.1523 236.789C37.4086 228.719 36.8914 221.63 36.8914 221.63Z" fill="#C5E0FE"/>
<path d="M119.685 214.979C127.019 216.292 135.83 230.178 135.83 230.178C135.83 230.178 126.535 240.782 119.911 242.21C113.286 243.638 112.351 213.667 119.685 214.979Z" fill="#C5E0FE"/>
<path d="M199.16 250.446C189.045 251.059 184.167 251.536 174.679 251.106L196.505 261.453C198.851 258.473 199.886 255.246 199.16 250.446Z" fill="#C5E0FE"/>
<circle cx="5.94984" cy="5.94984" r="5.94984" transform="matrix(-0.999966 0.00827657 0.00827657 0.999966 167.025 238.811)" fill="#FFBABA"/>
<circle cx="6.88789" cy="6.88789" r="6.88789" transform="matrix(-0.888962 -0.457981 -0.457981 0.888962 177.516 234.608)" fill="#2F291D"/>
<circle cx="6.88789" cy="6.88789" r="6.88789" transform="matrix(-0.888962 -0.457981 -0.457981 0.888962 177.516 234.608)" fill="#2F291D"/>
</svg>
