<svg width="415" height="224" viewBox="0 0 415 224" fill="none" xmlns="http://www.w3.org/2000/svg">
<circle cx="51.8543" cy="78.4027" r="20.2536" transform="rotate(35.9684 51.8543 78.4027)" fill="#506D98" fill-opacity="0.75"/>
<circle cx="80.5612" cy="36.2728" r="13.7934" transform="rotate(35.9684 80.5612 36.2728)" fill="#506D98" fill-opacity="0.75"/>
<circle cx="47.7362" cy="23.2384" r="8.55542" transform="rotate(35.9684 47.7362 23.2384)" fill="#506D98" fill-opacity="0.75"/>
<path d="M346.96 55.252C346.96 55.252 359.672 39.1411 362.91 39.8411C366.149 40.5412 366.844 49.9252 364.467 53.6998C362.09 57.4744 346.96 55.252 346.96 55.252C346.96 55.252 364.367 63.2488 368.177 67.3359C371.988 71.4229 372.257 77.3582 369.401 80.8176C366.544 84.277 355.79 80.5436 353.362 76.0431C350.933 71.5427 346.96 55.252 346.96 55.252Z" fill="#A0D162"/>
<path d="M286.387 93.2732L258.754 102.284C258.754 102.284 266.863 111.294 270.768 112.496C274.673 113.697 283.683 111.294 286.387 107.39C289.09 103.485 286.387 93.2732 286.387 93.2732Z" fill="#A0D162"/>
<path d="M351.335 55.254C351.335 55.254 149.125 35.6051 123.966 55.2539C98.807 74.9028 173.128 129.742 255.125 105.113C337.122 80.4842 351.335 55.254 351.335 55.254Z" fill="#C5EA97"/>
<circle cx="158.435" cy="72.8489" r="7.80923" fill="#FFBABA"/>
<circle cx="154.394" cy="64.002" r="7.23828" transform="rotate(-27.7312 154.394 64.002)" fill="#2F291D"/>
<circle cx="154.394" cy="64.002" r="7.23828" transform="rotate(-27.7312 154.394 64.002)" fill="#2F291D"/>
<path d="M254.203 52.3503L214.307 50.319C214.307 50.319 213.953 39.4742 237.402 33.751C260.851 28.0278 254.203 52.3503 254.203 52.3503Z" fill="#A0D162"/>
<path d="M223.435 72.8462C219.964 74.9663 213.362 83.116 213.362 83.116C228.67 89.1367 232.078 87.8908 238.196 86.5018C244.315 85.1127 226.905 70.7261 223.435 72.8462Z" fill="#A0D162"/>
<path d="M227.971 129.621C227.971 129.621 240.683 113.51 243.921 114.21C247.159 114.91 247.854 124.294 245.477 128.068C243.1 131.843 227.971 129.621 227.971 129.621C227.971 129.621 245.378 137.617 249.188 141.705C252.998 145.792 253.268 151.727 250.411 155.186C247.554 158.646 236.801 154.912 234.372 150.412C231.943 145.911 227.971 129.621 227.971 129.621Z" fill="#A0D162"/>
<path d="M167.397 167.642L139.765 176.652C139.765 176.652 147.874 185.663 151.779 186.865C155.683 188.066 164.694 185.663 167.397 181.759C170.101 177.854 167.397 167.642 167.397 167.642Z" fill="#A0D162"/>
<path d="M232.346 129.623C232.346 129.623 30.1351 109.974 4.97619 129.622C-20.1828 149.271 54.1382 204.111 136.135 179.482C218.132 154.853 232.346 129.623 232.346 129.623Z" fill="#C5EA97"/>
<circle cx="39.4455" cy="147.218" r="7.80923" fill="#FFBABA"/>
<circle cx="35.4044" cy="138.371" r="7.23828" transform="rotate(-27.7312 35.4044 138.371)" fill="#2F291D"/>
<circle cx="35.4044" cy="138.371" r="7.23828" transform="rotate(-27.7312 35.4044 138.371)" fill="#2F291D"/>
<path d="M135.213 126.719L95.3174 124.688C95.3174 124.688 94.9637 113.843 118.412 108.12C141.861 102.396 135.213 126.719 135.213 126.719Z" fill="#A0D162"/>
<path d="M104.445 147.215C100.975 149.335 94.3725 157.485 94.3725 157.485C109.68 163.505 113.088 162.259 119.206 160.87C125.325 159.481 107.916 145.095 104.445 147.215Z" fill="#A0D162"/>
<path d="M386.178 173.485C386.178 173.485 397.165 159.56 399.964 160.165C402.763 160.77 403.364 168.881 401.309 172.144C399.255 175.406 386.178 173.485 386.178 173.485C386.178 173.485 401.223 180.398 404.517 183.93C407.81 187.463 408.043 192.593 405.574 195.583C403.105 198.573 393.81 195.346 391.711 191.456C389.611 187.566 386.178 173.485 386.178 173.485Z" fill="#C5EA97"/>
<path d="M333.821 206.349L309.937 214.137C309.937 214.137 316.946 221.926 320.321 222.964C323.696 224.002 331.484 221.926 333.821 218.551C336.157 215.176 333.821 206.349 333.821 206.349Z" fill="#C5EA97"/>
<path d="M389.959 170.368C389.959 170.368 215.914 149.297 196.987 175.367C178.06 201.436 235.925 237.871 306.799 216.583C377.674 195.295 389.959 170.368 389.959 170.368Z" fill="#A0D162"/>
<circle cx="223.214" cy="190.392" r="6.74993" fill="#FFBABA"/>
<circle cx="219.721" cy="182.745" r="6.25642" transform="rotate(-27.7312 219.721 182.745)" fill="#2F291D"/>
<circle cx="219.721" cy="182.745" r="6.25642" transform="rotate(-27.7312 219.721 182.745)" fill="#2F291D"/>
<path d="M307.999 168.498L273.515 166.742C273.515 166.742 273.21 157.369 293.478 152.422C313.745 147.475 307.999 168.498 307.999 168.498Z" fill="#C5EA97"/>
<path d="M284.577 185.766C281.578 187.599 270.702 197.57 270.702 197.57C283.933 202.774 292.048 198.77 297.336 197.57C302.625 196.369 287.577 183.934 284.577 185.766Z" fill="#C5EA97"/>
</svg>
