<svg width="265" height="82" viewBox="0 0 265 82" fill="none" xmlns="http://www.w3.org/2000/svg">
<path d="M231.308 25.0428C231.308 25.0428 244.02 8.93183 247.258 9.63189C250.496 10.3319 251.191 19.716 248.814 23.4906C246.437 27.2652 231.308 25.0428 231.308 25.0428C231.308 25.0428 248.715 33.0396 252.525 37.1266C256.335 41.2137 256.605 47.1489 253.748 50.6084C250.891 54.0678 240.138 50.3344 237.709 45.8339C235.28 41.3334 231.308 25.0428 231.308 25.0428Z" fill="#A0D162"/>
<path d="M168.387 62.2732L140.754 71.2838C140.754 71.2838 148.863 80.2945 152.768 81.4959C156.673 82.6973 165.683 80.2945 168.387 76.3899C171.09 72.4853 168.387 62.2732 168.387 62.2732Z" fill="#A0D162"/>
<path d="M233.335 24.254C233.335 24.254 31.1249 4.60507 5.96593 24.2539C-19.193 43.9028 55.1279 98.7424 137.125 74.1133C219.122 49.4842 233.335 24.254 233.335 24.254Z" fill="#C5EA97"/>
<circle cx="40.4352" cy="41.8489" r="7.80923" fill="#FFBABA"/>
<circle cx="36.3937" cy="33.002" r="7.23828" transform="rotate(-27.7312 36.3937 33.002)" fill="#2F291D"/>
<path d="M136.203 21.3503L96.3071 19.319C96.3071 19.319 95.9535 8.47416 119.402 2.75098C142.851 -2.9722 136.203 21.3503 136.203 21.3503Z" fill="#A0D162"/>
<path d="M105.435 41.8462C101.964 43.9663 95.3623 52.116 95.3623 52.116C110.67 58.1367 114.078 56.8908 120.196 55.5018C126.315 54.1127 108.905 39.7261 105.435 41.8462Z" fill="#A0D162"/>
</svg>
