<svg width="222" height="74" viewBox="0 0 222 74" fill="none" xmlns="http://www.w3.org/2000/svg">
<path d="M193.178 23.4855C193.178 23.4855 204.165 9.55995 206.964 10.165C209.763 10.7701 210.364 18.8812 208.309 22.1438C206.255 25.4065 193.178 23.4855 193.178 23.4855C193.178 23.4855 208.223 30.3975 211.517 33.9302C214.81 37.4628 215.043 42.593 212.574 45.5831C210.105 48.5733 200.81 45.3463 198.711 41.4563C196.611 37.5663 193.178 23.4855 193.178 23.4855Z" fill="#C5EA97"/>
<path d="M140.821 56.3488L116.937 64.1371C116.937 64.1371 123.946 71.9255 127.321 72.964C130.696 74.0024 138.484 71.9255 140.821 68.5505C143.157 65.1756 140.821 56.3488 140.821 56.3488Z" fill="#C5EA97"/>
<path d="M196.959 20.3675C196.959 20.3675 22.9138 -0.70282 3.98672 25.3668C-14.9404 51.4364 42.9253 87.871 113.799 66.5828C184.674 45.2945 196.959 20.3675 196.959 20.3675Z" fill="#A0D162"/>
<circle cx="30.2138" cy="40.3918" r="6.74993" fill="#FFBABA"/>
<circle cx="26.7208" cy="32.7447" r="6.25642" fill="#2F291D"/>
<path d="M114.999 18.4982L80.5152 16.7424C80.5152 16.7424 80.2096 7.36867 100.478 2.42183C120.745 -2.52502 114.999 18.4982 114.999 18.4982Z" fill="#C5EA97"/>
<path d="M91.5775 35.7663C88.5778 37.5988 77.702 47.5695 77.702 47.5695C90.9333 52.7736 99.0478 48.7702 104.336 47.5695C109.625 46.3689 94.5772 33.9337 91.5775 35.7663Z" fill="#C5EA97"/>
</svg>
