<svg width="419" height="299" viewBox="0 0 419 299" fill="none" xmlns="http://www.w3.org/2000/svg">
<path d="M107.531 135.724C124.683 100.682 169.531 85.6712 205.695 102.028C241.859 118.385 256.784 160.14 239.632 195.182C222.479 230.223 179.257 245.37 143.093 229.014C106.929 212.657 90.3778 170.765 107.531 135.724Z" fill="#506D98"/>
<path d="M207.114 154.578C206.301 145.066 199.909 126.196 180.84 126.819" stroke="white" stroke-width="6.66914" stroke-linecap="round"/>
<path d="M3.65851 31.437C3.84553 31.7809 4.04888 32.1381 4.268 32.5058C8.29366 34.8705 30.1363 34.2173 41.8378 33.4964C50.7754 31.8042 57.9796 44.9759 60.4645 51.7733C59.2797 55.5653 64.8193 63.9249 67.7372 67.6308C76.8312 82.3253 84.3893 84.4758 83.8693 86.2154C83.4532 87.6071 81.9992 88.613 81.3242 88.942C63.9218 81.5721 58.2277 75.6508 57.556 73.6114C56.0175 74.4714 49 61.2967 45.6835 54.6019C42.7265 46.5759 35.5538 45.9439 32.337 46.6311C37.6295 44.1799 44.9371 40.6603 31.8278 46.1912C19.3426 51.4588 8.65068 39.8614 4.268 32.5058C3.75006 32.2016 3.52705 31.8474 3.65851 31.437Z" fill="#44C2BB"/>
<path d="M3.65851 31.437C7.58603 38.6596 18.7184 51.7221 31.8278 46.1912C44.9371 40.6603 37.6295 44.1799 32.337 46.6311C35.5538 45.9439 42.7265 46.5759 45.6835 54.6019C49 61.2967 56.0175 74.4714 57.556 73.6114C58.2277 75.6508 63.9218 81.5721 81.3242 88.942C81.9992 88.613 83.4532 87.6071 83.8693 86.2154C84.3893 84.4758 76.8312 82.3253 67.7372 67.6308C64.8193 63.9249 59.2797 55.5653 60.4645 51.7733C57.9796 44.9759 50.7754 31.8042 41.8378 33.4964C28.6308 34.3101 2.50527 35.0374 3.65851 31.437Z" stroke="#8FC88D" stroke-width="0.629695"/>
<path d="M63.0226 41.7061C61.998 33.8171 50.9207 25.9641 45.5101 23.0237C50.5196 21.4407 60.2511 26.5445 64.4906 29.2942C74.4606 29.8069 77.3377 49.6246 77.7717 59.2105L82.4982 72.8688C81.1591 74.7764 85.241 83.3315 87.4084 87.1187L83.1212 90.5293C77.7533 88.0818 68.7311 79.0124 64.891 74.7837C59.5721 68.6575 61.5967 57.6201 63.2739 52.8672C63.7216 51.2839 63.2929 44.7668 63.0226 41.7061Z" fill="#44C2BB" stroke="#76D074" stroke-width="0.629695"/>
<path d="M81.5785 72.058C79.7072 82.2612 83.4265 89.5229 85.5201 91.8783L88.6307 88.5458C91.3532 79.9534 85.8914 65.204 82.8201 58.9034L81.5785 72.058Z" fill="#32938D" stroke="#32938D" stroke-width="0.629695"/>
<path d="M41.3489 62.9776C43.7112 83.6226 72.6663 90.8476 86.8485 91.8795C75.4744 85.7765 66.7351 78.6112 63.7872 75.7915C58.6226 71.5496 46.6764 65.4814 41.3489 62.9776Z" fill="#32938D" stroke="#32938D" stroke-width="0.629695"/>
<path d="M298.667 183.1C295.632 183.1 293.054 182.587 290.932 181.563C288.84 180.512 287.249 179.029 286.159 177.116C285.068 175.202 284.523 172.938 284.523 170.323V152.815H291.772V170.565C291.772 171.859 292.037 172.991 292.567 173.962C293.128 174.905 293.908 175.633 294.91 176.145C295.941 176.658 297.194 176.913 298.667 176.913C300.17 176.913 301.421 176.658 302.424 176.145C303.455 175.633 304.236 174.905 304.766 173.962C305.297 173.019 305.562 171.886 305.562 170.565V152.815H312.81V170.323C312.81 172.938 312.265 175.202 311.175 177.116C310.084 179.029 308.493 180.512 306.401 181.563C304.31 182.587 301.731 183.1 298.667 183.1ZM325.779 182.331V157.788H333.028V182.331H325.779ZM316.718 158.597V152.815H342.132V158.597H316.718ZM346.78 182.331V152.815H354.028V182.331H346.78ZM361.366 182.331V152.815H368.438V182.331H361.366ZM367.554 182.331V176.832H381.653V182.331H367.554ZM367.554 170.08V164.581H380.637V170.08H367.554ZM367.554 158.314V152.815H381.344V158.314H367.554ZM306.004 233.278V203.761H313.252V233.278H306.004ZM285.142 233.278V203.761H292.391V233.278H285.142ZM291.109 221.35V215.527H307.285V221.35H291.109ZM317.442 233.278L328.094 203.761H339.806L350.856 233.278H343.342L334.414 208.33L336.713 209.179H331.011L333.398 208.33L324.691 233.278H317.442ZM325.53 225.959L327.74 220.46H340.381L342.635 225.959H325.53ZM368.49 234.046C365.573 234.046 363.069 233.588 360.976 232.671C358.885 231.728 357.175 230.501 355.849 228.992C354.523 227.455 353.537 225.81 352.888 224.059C352.269 222.28 351.96 220.554 351.96 218.883V217.994C351.96 216.161 352.285 214.355 352.932 212.576C353.581 210.769 354.568 209.139 355.893 207.683C357.249 206.228 358.943 205.068 360.976 204.206C363.039 203.316 365.47 202.872 368.269 202.872C371.186 202.872 373.765 203.37 376.004 204.368C378.243 205.365 380.026 206.753 381.352 208.532C382.707 210.284 383.503 212.346 383.738 214.719H376.446C376.24 213.533 375.768 212.522 375.031 211.686C374.295 210.85 373.337 210.203 372.158 209.745C371.009 209.287 369.713 209.058 368.269 209.058C366.826 209.058 365.544 209.287 364.424 209.745C363.304 210.203 362.362 210.85 361.595 211.686C360.859 212.522 360.285 213.519 359.871 214.678C359.489 215.81 359.297 217.077 359.297 218.479C359.297 219.854 359.489 221.12 359.871 222.28C360.285 223.412 360.873 224.409 361.639 225.272C362.435 226.108 363.407 226.755 364.556 227.213C365.705 227.644 367.017 227.859 368.49 227.859C370.73 227.859 372.616 227.361 374.147 226.363C375.71 225.366 376.652 223.991 376.976 222.239H384.224C383.959 224.395 383.164 226.377 381.838 228.183C380.542 229.962 378.759 231.39 376.49 232.469C374.251 233.52 371.584 234.046 368.49 234.046ZM410.248 233.278L399.11 219.49H394.646L408.171 203.761H416.48L404.326 217.872L404.237 215.002L418.999 233.278H410.248ZM389.033 233.278V203.761H396.282V233.278H389.033Z" fill="#93BEFF"/>
<path d="M173.057 264.401C155.602 264.401 140.615 261.316 128.097 255.145C115.579 248.974 105.352 240.952 97.4182 231.078C89.6604 221.204 83.9302 210.449 80.2276 198.812C76.525 187.176 74.6736 175.98 74.6736 165.224V159.406C74.6736 147.417 76.525 135.604 80.2276 123.967C84.1065 112.33 90.013 101.751 97.9472 92.2301C105.881 82.7091 115.931 75.1276 128.097 69.4855C140.439 63.6672 154.985 60.758 171.735 60.758C189.19 60.758 204.353 63.9316 217.224 70.279C230.271 76.45 240.674 85.2657 248.432 96.7262C256.19 108.01 260.862 121.234 262.449 136.397H224.629C223.219 127.581 220.045 120.176 215.108 114.181C210.348 108.01 204.265 103.426 196.86 100.429C189.455 97.2551 181.08 95.6683 171.735 95.6683C162.214 95.6683 153.751 97.3433 146.346 100.693C138.94 103.867 132.769 108.451 127.833 114.446C122.896 120.44 119.105 127.493 116.46 135.604C113.992 143.714 112.758 152.706 112.758 162.58C112.758 172.101 113.992 180.916 116.46 189.027C119.105 197.137 122.984 204.278 128.097 210.449C133.21 216.444 139.469 221.116 146.875 224.466C154.456 227.816 163.184 229.491 173.057 229.491C187.515 229.491 199.681 225.965 209.554 218.912C219.604 211.683 225.687 201.633 227.803 188.762H265.622C263.859 202.515 259.187 215.121 251.605 226.582C244.024 238.042 233.621 247.211 220.398 254.087C207.174 260.963 191.394 264.401 173.057 264.401Z" fill="#93BEFF"/>
</svg>
