<svg width="215" height="260" viewBox="0 0 215 260" fill="none" xmlns="http://www.w3.org/2000/svg">
<path fill-rule="evenodd" clip-rule="evenodd" d="M196.838 71.4803C214.581 93.006 219.738 118.061 208.357 127.442C207.039 128.529 205.557 129.357 203.939 129.94C205.557 130.522 207.039 131.351 208.357 132.437C219.738 141.818 214.581 166.873 196.838 188.399C178.541 210.597 159.623 232.405 141.445 254.812C133.779 264.261 118.514 259.717 117.265 247.613C115.131 226.956 111.486 205.865 110.847 185.113C96.453 170.72 81.8996 157.179 67.7938 142.583C61.3236 135.888 61.4143 125.243 67.9976 118.659L110.853 75.794C109.941 55.2172 115.148 32.7662 117.265 12.2659C118.514 0.162354 133.779 -4.38173 141.445 5.0676C159.623 27.4746 178.541 49.2818 196.838 71.4803Z" fill="#44A29C"/>
<path fill-rule="evenodd" clip-rule="evenodd" d="M208.357 127.442C219.738 118.061 214.581 93.006 196.838 71.4803C188.918 61.8713 180.881 52.3356 172.839 42.7928C168.314 37.4234 163.786 32.0517 159.277 26.6634C136.135 49.4408 121 87.2321 121 130C121 172.734 136.111 210.499 159.221 233.282C163.749 227.872 168.295 222.478 172.839 217.086C180.881 207.544 188.918 198.008 196.838 188.399C214.581 166.873 219.738 141.818 208.357 132.437C207.039 131.351 205.557 130.522 203.939 129.94C205.557 129.357 207.039 128.529 208.357 127.442Z" fill="#44C2BB"/>
<ellipse cx="6" cy="10" rx="6" ry="10" transform="matrix(1 0 0 -1 180 164)" fill="#44A29C"/>
<path d="M-1.6621e-05 178.204C12.1478 145.658 23.261 131.055 64.7501 123.361C80.8776 112.335 88.0721 157.131 64.6132 139.432C37.0004 130.268 23.6001 146.379 -1.6621e-05 178.204Z" fill="#44A29C"/>
<circle cx="191.488" cy="144.952" r="8.65183" fill="#2F291D"/>
<ellipse cx="6" cy="10" rx="6" ry="10" transform="matrix(1 0 0 -1 180 105)" fill="#44A29C"/>
<circle cx="8.65183" cy="8.65183" r="8.65183" transform="matrix(1 0 0 -1 182.34 113.417)" fill="#2F291D"/>
<ellipse cx="172" cy="64.5" rx="4" ry="4.5" fill="#F5F5F5"/>
<ellipse cx="172" cy="93.5" rx="4" ry="4.5" fill="#F5F5F5"/>
<ellipse cx="172" cy="123.5" rx="4" ry="4.5" fill="#F5F5F5"/>
<ellipse cx="172" cy="154.5" rx="4" ry="4.5" fill="#F5F5F5"/>
<ellipse cx="172" cy="185.5" rx="4" ry="4.5" fill="#F5F5F5"/>
<ellipse cx="151" cy="73.5" rx="4" ry="4.5" fill="#F5F5F5"/>
<ellipse cx="151" cy="98.5" rx="4" ry="4.5" fill="#F5F5F5"/>
<ellipse cx="151" cy="123.5" rx="4" ry="4.5" fill="#F5F5F5"/>
<ellipse cx="151" cy="148.5" rx="4" ry="4.5" fill="#F5F5F5"/>
<ellipse cx="151" cy="173.5" rx="4" ry="4.5" fill="#F5F5F5"/>
<ellipse cx="126" cy="81.5" rx="4" ry="4.5" fill="#F5F5F5"/>
<ellipse cx="126" cy="102.5" rx="4" ry="4.5" fill="#F5F5F5"/>
<ellipse cx="126" cy="123.5" rx="4" ry="4.5" fill="#F5F5F5"/>
<ellipse cx="126" cy="144.5" rx="4" ry="4.5" fill="#F5F5F5"/>
<ellipse cx="126" cy="165.5" rx="4" ry="4.5" fill="#F5F5F5"/>
</svg>
