<svg width="417" height="277" viewBox="0 0 417 277" fill="none" xmlns="http://www.w3.org/2000/svg">
<ellipse cx="120" cy="11.5" rx="8" ry="9.5" fill="#BCD7FF"/>
<path d="M146 33C146 25.8203 140.18 20 133 20H124V2H137C151.912 2 164 14.0883 164 29V43.5H146V33Z" fill="#FF9950"/>
<rect x="132" y="42" width="47" height="22" rx="8" fill="#FECDA9"/>
<path d="M119 65C119 59.4772 123.477 55 129 55H188.406C190.422 55 192.39 55.6089 194.053 56.7469L240.822 88.7469C248.937 94.2989 245.008 107 235.176 107H129C123.477 107 119 102.523 119 97V65Z" fill="#FFB682"/>
<rect width="12.4725" height="12.3563" transform="matrix(-0.999996 -0.00297203 -0.00297203 0.999996 406.805 175.877)" fill="#DDEEF8"/>
<path d="M368.3 91.3215C373.888 88.4406 380.415 93.1554 379.754 99.5952L374.275 152.964C373.644 159.109 366.878 162.244 361.943 158.679L321.111 129.185C316.175 125.62 316.657 117.945 321.989 115.197L368.3 91.3215Z" fill="#FF9950"/>
<path d="M373.822 267.572C374.64 273.988 368.246 278.864 362.592 276.136L315.71 253.509C310.307 250.901 309.626 243.233 314.47 239.539L354.569 208.959C359.413 205.265 366.258 208.232 367.039 214.365L373.822 267.572Z" fill="#FF9950"/>
<ellipse cx="64" cy="182.5" rx="64" ry="80.5" fill="#BCD7FF"/>
<mask id="mask0_0_1" style="mask-type:alpha" maskUnits="userSpaceOnUse" x="62" y="94" width="355" height="178">
<path fill-rule="evenodd" clip-rule="evenodd" d="M71 94C66.0293 94 62 98.0294 62 103V263C62 267.971 66.0293 272 71 272H88C92.2832 272 95.8672 269.008 96.7769 265H286.608C288.504 265 290.367 264.51 292.018 263.578L391.91 207.157C395.364 205.206 397.5 201.547 397.5 197.58V168.285C397.5 164.391 395.44 160.786 392.085 158.809L296.585 102.523C294.893 101.526 292.964 101 291 101H96.7769C95.8672 96.992 92.2832 94 88 94H71Z" fill="#D9D9D9"/>
<path d="M403 163C403 160.239 405.239 158 408 158H412C414.761 158 417 160.239 417 163V198C417 200.761 414.761 203 412 203H408C405.239 203 403 200.761 403 198V163Z" fill="#D9D9D9"/>
</mask>
<g mask="url(#mask0_0_1)">
<rect x="62" y="180" width="358" height="93" fill="#FFB682"/>
<rect x="62" y="89" width="358" height="93" fill="#FECDA9"/>
<rect x="62" y="92" width="17" height="181" fill="#DCEAFF"/>
</g>
<path d="M21.0773 143C7.6409 167.111 7.6409 198.829 21.0773 222.94" stroke="white" stroke-width="8" stroke-linecap="round"/>
<path d="M111 115H165" stroke="white" stroke-width="8" stroke-linecap="round"/>
<circle cx="176.5" cy="181.5" r="40.5" fill="#FFDEC7"/>
<path d="M217 181.5C217 186.819 215.952 192.085 213.917 196.999C211.882 201.912 208.899 206.377 205.138 210.138C201.377 213.899 196.912 216.882 191.999 218.917C187.085 220.952 181.819 222 176.5 222C171.181 222 165.915 220.952 161.001 218.917C156.088 216.882 151.623 213.899 147.862 210.138C144.101 206.377 141.118 201.912 139.083 196.999C137.048 192.085 136 186.819 136 181.5L176.5 181.5H217Z" fill="#FF9950"/>
<circle cx="176.5" cy="181.5" r="32.5" fill="#DCEAFF"/>
<circle cx="176.5" cy="181.5" r="27.5" fill="#BCD7FF"/>
<ellipse cx="4.02147" cy="4.17442" rx="4.02147" ry="4.17442" transform="matrix(-0.999996 -0.00297203 -0.00297203 0.999996 164.79 166.468)" fill="white"/>
<path d="M242 185.435C242 179.672 246.672 175 252.435 175H346.565C352.328 175 357 179.672 357 185.435V185.435C357 186.299 356.299 187 355.435 187H243.565C242.701 187 242 186.299 242 185.435V185.435Z" fill="#FF984E"/>
<rect x="120" width="5" height="24" rx="2" fill="white"/>
<path d="M135 66.5H187" stroke="white" stroke-width="8" stroke-linecap="round"/>
</svg>
