<svg width="1278" height="948" viewBox="0 0 1278 948" fill="none" xmlns="http://www.w3.org/2000/svg">
<ellipse cx="367.138" cy="35.1841" rx="24.4759" ry="29.0651" fill="#BCD7FF"/>
<path d="M446.685 100.963C446.685 78.9968 428.878 61.1897 406.911 61.1897H379.376V6.11896H419.149C464.771 6.11896 501.755 43.103 501.755 88.725V133.088H446.685V100.963Z" fill="#FF9950"/>
<rect x="403.852" y="128.498" width="143.796" height="67.3086" rx="8" fill="#FECDA9"/>
<path d="M364.079 178.272C364.079 172.749 368.556 168.272 374.079 168.272H582.798C584.813 168.272 586.781 168.881 588.444 170.019L791.734 309.112C799.849 314.664 795.92 327.365 786.088 327.365H374.079C368.556 327.365 364.079 322.888 364.079 317.365V178.272Z" fill="#FFB682"/>
<rect width="38.1594" height="37.8038" transform="matrix(-0.999996 -0.00297203 -0.00297203 0.999996 1244.61 538.093)" fill="#DDEEF8"/>
<path d="M1153.56 265.603C1159.15 262.722 1165.68 267.437 1165.02 273.877L1142.21 496.028C1141.58 502.172 1134.81 505.308 1129.88 501.743L959.913 378.973C954.978 375.408 955.459 367.734 960.791 364.985L1153.56 265.603Z" fill="#FF9950"/>
<path d="M1147.61 849.318C1148.43 855.735 1142.04 860.611 1136.38 857.882L941.242 763.701C935.839 761.093 935.158 753.425 940.001 749.731L1106.91 622.443C1111.76 618.749 1118.6 621.716 1119.38 627.848L1147.61 849.318Z" fill="#FF9950"/>
<ellipse cx="195.807" cy="558.356" rx="195.807" ry="246.288" fill="#BCD7FF"/>
<mask id="mask0_18_853" style="mask-type:alpha" maskUnits="userSpaceOnUse" x="189" y="287" width="1087" height="546">
<path fill-rule="evenodd" clip-rule="evenodd" d="M217.223 287.591C202.016 287.591 189.688 299.919 189.688 315.127V804.644C189.688 819.852 202.016 832.18 217.223 832.18H269.235C282.339 832.18 293.304 823.026 296.087 810.763H876.874C882.673 810.763 888.374 809.265 893.425 806.412L1199.04 633.795C1209.61 627.826 1216.14 616.629 1216.14 604.492V514.866C1216.14 502.95 1209.84 491.923 1199.58 485.873L907.397 313.669C902.219 310.617 896.318 309.008 890.308 309.008H296.087C293.304 296.745 282.339 287.591 269.235 287.591H217.223Z" fill="#D9D9D9"/>
<path d="M1232.97 498.696C1232.97 490.247 1239.82 483.398 1248.27 483.398H1260.51C1268.96 483.398 1275.8 490.247 1275.8 498.696V605.778C1275.8 614.226 1268.96 621.075 1260.51 621.075H1248.27C1239.82 621.075 1232.97 614.226 1232.97 605.778V498.696Z" fill="#D9D9D9"/>
</mask>
<g mask="url(#mask0_18_853)">
<rect x="189.688" y="550.707" width="1095.3" height="284.532" fill="#FFB682"/>
<rect x="189.688" y="272.294" width="1095.3" height="284.532" fill="#FECDA9"/>
<rect x="296" y="272" width="931" height="567" fill="#363636"/>
<path d="M1227 227V839H296L1227 227Z" fill="#242424"/>
<rect x="189.688" y="281.473" width="52.0112" height="553.767" fill="#DCEAFF"/>
<path d="M343 309V461.5L389 499.5V741H732L782.848 709.5M947.5 328.5V607.5L782.848 709.5M782.848 709.5L888.5 814.5" stroke="#BCD7FF" stroke-width="21" stroke-linecap="square" stroke-linejoin="round"/>
<line x1="893.773" y1="807.773" x2="893.773" y2="312.227" stroke="#DCEAFF" stroke-width="48.4533" stroke-linecap="square"/>
</g>
<path d="M64.4856 437.506C23.3772 511.272 23.3772 608.314 64.4856 682.08" stroke="white" stroke-width="24" stroke-linecap="round"/>
<rect x="367.138" width="15.2974" height="73.4276" rx="2" fill="white"/>
<path d="M413.03 203.456H572.124" stroke="white" stroke-width="24" stroke-linecap="round"/>
<path d="M893.961 664.02C893.961 677.678 887.916 688.75 880.458 688.75C877.341 688.75 867.82 689.878 865.535 686.63C862.352 682.106 866.955 671.97 866.955 664.02C866.955 656.085 862.362 645.699 865.535 641.174C867.823 637.91 877.333 639.289 880.458 639.289C887.916 639.289 893.961 650.362 893.961 664.02Z" fill="#FFAE34"/>
<ellipse cx="870.503" cy="663.874" rx="13.5033" ry="24.8745" fill="white"/>
<path d="M873.991 654.774C873.991 654.774 872.146 663.171 871.326 665.122C870.507 667.073 867.536 665.997 867.954 664.259C868.373 662.52 873.991 654.774 873.991 654.774Z" fill="#FF6767"/>
<rect x="356" y="560" width="68.3697" height="88.5834" rx="13.674" fill="#242424"/>
<rect x="366" y="577" width="47.5616" height="55.2903" rx="13.674" fill="#363636"/>
<path fill-rule="evenodd" clip-rule="evenodd" d="M384.835 544.213V531.858L374.554 537.794C376.954 541.131 380.613 543.503 384.835 544.213ZM391.353 528.095L402.301 534.416C403.033 532.587 403.435 530.591 403.435 528.5C403.435 526.159 402.931 523.936 402.024 521.934L391.353 528.095ZM400.042 538.332L389.356 532.162V544.328C393.684 543.826 397.484 541.59 400.042 538.332ZM389.356 524.029L399.591 518.119C397.048 515.16 393.437 513.145 389.356 512.672V524.029ZM384.835 524.333L374.979 518.642C377.375 515.603 380.855 513.457 384.835 512.787V524.333ZM372.712 522.553C371.972 524.39 371.565 526.398 371.565 528.5C371.565 530.352 371.881 532.13 372.461 533.783L382.312 528.095L372.712 522.553ZM409 528.5C409 540.374 399.374 550 387.5 550C375.626 550 366 540.374 366 528.5C366 516.626 375.626 507 387.5 507C399.374 507 409 516.626 409 528.5Z" fill="#FF6767"/>
<path fill-rule="evenodd" clip-rule="evenodd" d="M446.423 759.889V734.029L424.904 746.453C429.928 753.437 437.585 758.401 446.423 759.889ZM460.064 726.153L482.979 739.383C484.51 735.554 485.353 731.376 485.353 727C485.353 722.101 484.297 717.448 482.399 713.258L460.064 726.153ZM478.25 747.578L455.884 734.665V760.129C464.944 759.078 472.897 754.397 478.25 747.578ZM455.884 717.641L477.306 705.273C471.984 699.079 464.426 694.861 455.884 693.871V717.641ZM446.423 718.277L425.793 706.367C430.809 700.005 438.091 695.514 446.423 694.111V718.277ZM421.047 714.552C419.499 718.398 418.647 722.6 418.647 727C418.647 730.876 419.308 734.597 420.523 738.057L441.141 726.153L421.047 714.552ZM497 727C497 751.853 476.853 772 452 772C427.147 772 407 751.853 407 727C407 702.147 427.147 682 452 682C476.853 682 497 702.147 497 727Z" fill="#FF6767"/>
<path fill-rule="evenodd" clip-rule="evenodd" d="M888.423 499.889V474.029L866.904 486.453C871.928 493.437 879.585 498.401 888.423 499.889ZM902.064 466.153L924.979 479.383C926.51 475.554 927.353 471.376 927.353 467C927.353 462.101 926.297 457.448 924.399 453.258L902.064 466.153ZM920.25 487.578L897.884 474.665V500.129C906.944 499.078 914.897 494.397 920.25 487.578ZM897.884 457.641L919.306 445.273C913.984 439.079 906.426 434.861 897.884 433.871V457.641ZM888.423 458.277L867.793 446.367C872.809 440.005 880.091 435.514 888.423 434.111V458.277ZM863.047 454.552C861.499 458.398 860.647 462.6 860.647 467C860.647 470.876 861.308 474.597 862.523 478.057L883.141 466.153L863.047 454.552ZM939 467C939 491.853 918.853 512 894 512C869.147 512 849 491.853 849 467C849 442.147 869.147 422 894 422C918.853 422 939 442.147 939 467Z" fill="#FF6767"/>
<rect x="412.794" y="338.704" width="55.2006" height="84.1639" rx="27.6003" fill="#FFF0A8"/>
<path d="M418.001 337H463.405L474.127 370.052H407L418.001 337Z" fill="#242424"/>
<path d="M412.794 381.978H467.995" stroke="#242424" stroke-width="3.56712"/>
<path d="M412.794 394.245H467.995" stroke="#242424" stroke-width="3.56712"/>
<path d="M424.888 370.051H430.34C429.384 399.965 429.788 413.977 434.145 422.185C431.543 421.409 430.085 420.915 427.501 419.8C423.322 407.242 424.368 397.129 424.888 370.051Z" fill="#242424"/>
<path d="M456.126 370.051H450.674C451.63 399.965 451.226 413.977 446.868 422.185C449.471 421.409 450.929 420.915 453.513 419.8C457.691 407.242 456.646 397.129 456.126 370.051Z" fill="#242424"/>
<rect x="794.794" y="338.704" width="55.2006" height="84.1639" rx="27.6003" fill="#FFF0A8"/>
<path d="M800.001 337H845.405L856.127 370.052H789L800.001 337Z" fill="#242424"/>
<path d="M794.794 381.978H849.995" stroke="#242424" stroke-width="3.56712"/>
<path d="M794.794 394.245H849.995" stroke="#242424" stroke-width="3.56712"/>
<path d="M806.888 370.051H812.34C811.384 399.965 811.788 413.977 816.145 422.185C813.543 421.409 812.085 420.915 809.501 419.8C805.322 407.242 806.368 397.129 806.888 370.051Z" fill="#242424"/>
<path d="M838.126 370.051H832.674C833.63 399.965 833.226 413.977 828.868 422.185C831.471 421.409 832.929 420.915 835.513 419.8C839.691 407.242 838.646 397.129 838.126 370.051Z" fill="#242424"/>
<path d="M515.374 738.258C515.374 740.638 517.304 742.568 519.685 742.568C522.065 742.568 523.995 740.638 523.995 738.258H515.374ZM523.995 738.258V715.106H515.374V738.258H523.995Z" fill="#FFAE34"/>
<circle cx="519.5" cy="700.5" r="22.5" fill="white"/>
<rect x="518.676" y="683.671" width="1.63043" height="4.8913" rx="0.815217" fill="black"/>
<rect x="518.676" y="712.368" width="1.63043" height="4.8913" rx="0.815217" fill="black"/>
<rect x="536.279" y="700.305" width="1.63043" height="4.8913" rx="0.815217" transform="rotate(90.9273 536.279 700.305)" fill="black"/>
<rect x="507.588" y="699.839" width="1.63043" height="4.8913" rx="0.815217" transform="rotate(90.9273 507.588 699.839)" fill="black"/>
<rect x="510.52" y="686.448" width="1.63043" height="4.8913" rx="0.815217" transform="rotate(-30 510.52 686.448)" fill="black"/>
<rect x="524.874" y="711.3" width="1.63043" height="4.8913" rx="0.815217" transform="rotate(-30 524.874 711.3)" fill="black"/>
<rect width="1.63043" height="4.8913" rx="0.815217" transform="matrix(-0.866025 -0.5 -0.5 0.866025 528.734 686.449)" fill="black"/>
<rect width="1.63043" height="4.8913" rx="0.815217" transform="matrix(-0.866025 -0.5 -0.5 0.866025 514.379 711.302)" fill="black"/>
<rect width="1.63043" height="4.8913" rx="0.815217" transform="matrix(-0.5 -0.866025 -0.866025 0.5 534.576 692.895)" fill="black"/>
<rect width="1.63043" height="4.8913" rx="0.815217" transform="matrix(-0.5 -0.866025 -0.866025 0.5 509.722 707.243)" fill="black"/>
<rect x="504.679" y="692.895" width="1.63043" height="4.8913" rx="0.815217" transform="rotate(-60 504.679 692.895)" fill="black"/>
<rect x="529.533" y="707.243" width="1.63043" height="4.8913" rx="0.815217" transform="rotate(-60 529.533 707.243)" fill="black"/>
<path d="M525.407 696.052C525.407 696.052 521.196 701.217 519.925 702.198C518.653 703.179 516.782 700.719 517.681 699.67C518.58 698.621 525.407 696.052 525.407 696.052Z" fill="#FF6767"/>
<ellipse cx="629.638" cy="517.413" rx="167.653" ry="143.428" fill="#456087"/>
<path d="M482.452 620.198L800.922 491.102C800.922 491.102 817.653 597.964 726.442 649.776C635.232 701.588 482.452 620.198 482.452 620.198Z" fill="#314664"/>
<path d="M809.551 516.899C809.551 601.734 730.419 673.421 628.964 673.421C527.509 673.421 448.377 601.734 448.377 516.899C448.377 432.064 527.509 360.377 628.964 360.377C730.419 360.377 809.551 432.064 809.551 516.899Z" stroke="#DCEAFF" stroke-width="26.7534"/>
<rect x="520.252" y="671.75" width="50.3761" height="49.2113" rx="11.2959" transform="rotate(-142.662 520.252 671.75)" fill="#DCEAFF"/>
<circle cx="515.228" cy="637.096" r="11.0699" fill="#BCD7FF"/>
<path d="M512.755 630.916L518.541 643.238" stroke="#2F291D" stroke-width="2.37808" stroke-linecap="round"/>
<path d="M521.595 634.105L509.273 639.89" stroke="#2F291D" stroke-width="2.37808" stroke-linecap="round"/>
<rect x="512.251" y="430.711" width="50.3761" height="49.2113" rx="11.2959" transform="rotate(-124.046 512.251 430.711)" fill="#DCEAFF"/>
<circle cx="518.221" cy="396.235" r="11.0699" fill="#BCD7FF"/>
<path d="M513.793 391.262L523.419 400.888" stroke="#2F291D" stroke-width="2.37808" stroke-linecap="round"/>
<path d="M523.19 391.262L513.564 400.888" stroke="#2F291D" stroke-width="2.37808" stroke-linecap="round"/>
<rect width="50.3761" height="49.2113" rx="11.2959" transform="matrix(0.559856 -0.82859 -0.82859 -0.559856 743.952 425.901)" fill="#DCEAFF"/>
<circle cx="11.0699" cy="11.0699" r="11.0699" transform="matrix(-1 0 0 1 749.047 380.355)" fill="#BCD7FF"/>
<path d="M742.405 386.451L732.779 396.077" stroke="#2F291D" stroke-width="2.37808" stroke-linecap="round"/>
<path d="M733.009 386.451L742.635 396.077" stroke="#2F291D" stroke-width="2.37808" stroke-linecap="round"/>
<path fill-rule="evenodd" clip-rule="evenodd" d="M576.402 520.513C574.947 520.236 573.538 521.044 572.977 522.332L569.385 536.502C580.164 534.904 582.944 533.635 591.788 526.091C581.511 521.914 579.185 521.042 576.402 520.513Z" fill="#D7BF51"/>
<path fill-rule="evenodd" clip-rule="evenodd" d="M557.506 590.844C556.569 593.208 557.644 596.198 559.908 597.522L571.962 604.574C574.226 605.898 576.82 605.055 577.757 602.691C583.056 589.321 563.426 575.908 557.506 590.844Z" fill="#D7BF51"/>
<path fill-rule="evenodd" clip-rule="evenodd" d="M548.48 577.672C543.594 579.275 538.243 574.521 536.53 567.053C534.817 559.585 537.39 552.231 542.277 550.627C546.31 549.304 551.88 551.756 555.798 552.553L558.62 571.791C555.415 573.688 552.042 576.503 548.48 577.672Z" fill="#D7BF51"/>
<ellipse cx="41.5909" cy="37.2991" rx="41.5909" ry="37.2991" transform="matrix(-0.999883 -0.0152827 -0.0152827 0.999883 634 525.524)" fill="#EBD051"/>
<path d="M552.032 572.857C554.901 581.377 561.065 588.707 569.413 593.527C577.762 598.347 587.745 600.339 597.565 599.146C607.384 597.952 616.394 593.65 622.969 587.015C629.544 580.381 633.253 571.85 633.426 562.961C620.027 558.8 608.665 557.391 589.194 560.956L574.314 565.721L552.032 572.857Z" fill="#FFF0A8"/>
<path d="M600.787 567.196C600.873 569.66 604.937 571.518 609.865 571.346C614.792 571.174 618.717 569.037 618.631 566.573C618.545 564.109 614.556 564.399 609.628 564.571C604.701 564.743 600.701 564.732 600.787 567.196Z" fill="#EAB19B"/>
<circle cx="4.29853" cy="4.29853" r="4.29853" transform="matrix(1 0 0 -1 622.427 569.878)" fill="#FFBABA"/>
<circle cx="3.98425" cy="3.98425" r="3.98425" transform="matrix(1 0 0 -1 621.659 563.702)" fill="#2F291D"/>
<circle cx="4.29853" cy="4.29853" r="4.29853" transform="matrix(1 0 0 -1 586.719 569.879)" fill="#FFBABA"/>
<circle cx="3.98425" cy="3.98425" r="3.98425" transform="matrix(1 0 0 -1 589.255 564.695)" fill="#2F291D"/>
<path d="M595.36 602.437L598.598 595.865L591.8 596.033L595.36 602.437Z" fill="#F6DE6F"/>
<path d="M550.435 578.486L557.758 578.746L554.818 572.614L550.435 578.486Z" fill="#F6DE6F"/>
<path d="M565.526 583.919L571.884 580.276L566.151 576.618L565.526 583.919Z" fill="#F6DE6F"/>
<path d="M615.665 587.087L614.464 579.86L609.039 583.961L615.665 587.087Z" fill="#F6DE6F"/>
<path d="M603.42 592.471L605.069 585.332L598.49 587.051L603.42 592.471Z" fill="#F6DE6F"/>
<path d="M590.077 593.505L593.799 587.193L587.007 586.852L590.077 593.505Z" fill="#F6DE6F"/>
<path d="M576.723 589.961L582.645 585.647L576.547 582.636L576.723 589.961Z" fill="#F6DE6F"/>
<path d="M626.136 577.333L623.141 570.646L618.933 575.989L626.136 577.333Z" fill="#F6DE6F"/>
<path d="M571.09 577.615L577.493 574.054L571.807 570.323L571.09 577.615Z" fill="#F6DE6F"/>
<path d="M601.922 583.984L603.095 576.751L596.644 578.902L601.922 583.984Z" fill="#F6DE6F"/>
<path d="M585.357 584.039L590.091 578.447L583.455 576.963L585.357 584.039Z" fill="#F6DE6F"/>
<path d="M630.357 584.782L627.139 578.199L623.114 583.68L630.357 584.782Z" fill="#F6DE6F"/>
<path d="M621.3 593.684L620.035 586.467L614.646 590.615L621.3 593.684Z" fill="#F6DE6F"/>
<path d="M609.081 599.471L610.459 592.275L603.949 594.242L609.081 599.471Z" fill="#F6DE6F"/>
<path d="M557.97 589.675L564.974 587.523L560.188 582.691L557.97 589.675Z" fill="#F6DE6F"/>
<path d="M569.167 597.567L574.813 592.897L568.542 590.266L569.167 597.567Z" fill="#F6DE6F"/>
<path d="M581.717 601.228L586.168 595.408L579.466 594.256L581.717 601.228Z" fill="#F6DE6F"/>
<path d="M573.853 525.798L572.829 533.053L579.235 530.771L573.853 525.798Z" fill="#D7BF51"/>
<path d="M624.01 534.528L616.972 536.567L621.68 541.475L624.01 534.528Z" fill="#D7BF51"/>
<path d="M631.342 542.622L624.1 543.74L628.138 549.212L631.342 542.622Z" fill="#D7BF51"/>
<path d="M607.975 534.077L603.073 539.523L609.661 541.208L607.975 534.077Z" fill="#D7BF51"/>
<path d="M620.66 540.888L613.984 543.908L619.342 548.096L620.66 540.888Z" fill="#D7BF51"/>
<path d="M559.36 546.72L562.757 553.212L566.631 547.622L559.36 546.72Z" fill="#D7BF51"/>
<path d="M569.308 537.783L569.97 545.08L575.684 541.393L569.308 537.783Z" fill="#D7BF51"/>
<path d="M581.663 532.634L580.098 539.792L586.657 537.996L581.663 532.634Z" fill="#D7BF51"/>
<path d="M595.458 531.832L591.179 537.779L597.912 538.735L595.458 531.832Z" fill="#D7BF51"/>
<path d="M552.456 559.254L557.389 564.672L559.718 558.283L552.456 559.254Z" fill="#D7BF51"/>
<path d="M604.663 541.799L599.692 547.181L606.258 548.95L604.663 541.799Z" fill="#D7BF51"/>
<path d="M573.384 545.376L574.527 552.613L579.984 548.556L573.384 545.376Z" fill="#D7BF51"/>
<path d="M589.095 540.154L586.343 546.945L593.112 546.282L589.095 540.154Z" fill="#D7BF51"/>
<path d="M551.943 542.214L555.397 548.675L559.222 543.052L551.943 542.214Z" fill="#D7BF51"/>
<path d="M561.746 532.9L562.684 540.167L568.254 536.266L561.746 532.9Z" fill="#D7BF51"/>
<path d="M613.364 526.251L607.382 530.482L613.437 533.577L613.364 526.251Z" fill="#D7BF51"/>
<path d="M600.258 522.249L596.352 528.448L603.13 528.99L600.258 522.249Z" fill="#D7BF51"/>
<path d="M587.196 522.684L584.785 529.603L591.511 528.604L587.196 522.684Z" fill="#D7BF51"/>
<circle cx="3.30656" cy="3.30656" r="3.30656" transform="matrix(1 0 0 -1 574.487 543.429)" fill="white"/>
<circle cx="527.26" cy="497.222" r="11.2597" fill="#5474A0"/>
<circle cx="555.482" cy="479.26" r="11.2597" fill="#5474A0"/>
<circle cx="550.553" cy="513.451" r="6.66064" fill="#5474A0"/>
<path d="M730.091 471.527C730.091 471.527 735.557 464.6 736.949 464.901C738.341 465.202 738.64 469.237 737.618 470.86C736.596 472.482 730.091 471.527 730.091 471.527C730.091 471.527 737.575 474.965 739.214 476.722C740.852 478.48 740.968 481.031 739.739 482.519C738.511 484.006 733.888 482.401 732.843 480.466C731.799 478.531 730.091 471.527 730.091 471.527Z" fill="#A0D162"/>
<path d="M699.249 487.602L687.368 491.476C687.368 491.476 690.855 495.35 692.533 495.866C694.212 496.383 698.086 495.35 699.249 493.671C700.411 491.992 699.249 487.602 699.249 487.602Z" fill="#A0D162"/>
<path d="M730.897 471.255C730.897 471.255 643.957 462.807 633.14 471.255C622.322 479.703 654.277 503.281 689.531 492.692C724.786 482.103 730.897 471.255 730.897 471.255Z" fill="#C5EA97"/>
<circle cx="647.964" cy="478.817" r="3.35759" fill="#FFBABA"/>
<circle cx="646.224" cy="475.013" r="3.11211" fill="#2F291D"/>
<circle cx="646.224" cy="475.013" r="3.11211" fill="#2F291D"/>
<path d="M685.409 470.008L668.255 469.134C668.255 469.134 668.103 464.471 678.185 462.011C688.267 459.55 685.409 470.008 685.409 470.008Z" fill="#A0D162"/>
<path d="M672.178 478.82C670.686 479.731 667.847 483.235 667.847 483.235C674.429 485.824 675.894 485.288 678.525 484.691C681.155 484.094 673.67 477.908 672.178 478.82Z" fill="#A0D162"/>
<path d="M740.611 438.82C740.611 438.82 744.671 433.674 745.705 433.898C746.739 434.121 746.961 437.119 746.202 438.324C745.443 439.53 740.611 438.82 740.611 438.82C740.611 438.82 746.17 441.374 747.387 442.679C748.604 443.985 748.69 445.881 747.778 446.985C746.865 448.09 743.431 446.898 742.655 445.461C741.879 444.023 740.611 438.82 740.611 438.82Z" fill="#A0D162"/>
<path d="M717.699 450.761L708.873 453.639C708.873 453.639 711.463 456.517 712.711 456.901C713.958 457.284 716.836 456.517 717.699 455.27C718.562 454.023 717.699 450.761 717.699 450.761Z" fill="#A0D162"/>
<path d="M741.209 438.618C741.209 438.618 676.625 432.342 668.589 438.618C660.554 444.894 684.291 462.409 710.481 454.543C736.67 446.676 741.209 438.618 741.209 438.618Z" fill="#C5EA97"/>
<circle cx="679.602" cy="444.236" r="2.49421" fill="#FFBABA"/>
<circle cx="678.309" cy="441.41" r="2.31185" fill="#2F291D"/>
<circle cx="678.309" cy="441.41" r="2.31185" fill="#2F291D"/>
<path d="M707.418 437.691L694.675 437.043C694.675 437.043 694.563 433.579 702.052 431.751C709.541 429.923 707.418 437.691 707.418 437.691Z" fill="#A0D162"/>
<path d="M697.589 444.237C696.481 444.915 694.372 447.517 694.372 447.517C699.261 449.44 700.35 449.043 702.304 448.599C704.258 448.155 698.698 443.56 697.589 444.237Z" fill="#A0D162"/>
<circle cx="629" cy="439" r="7" fill="#597AA9" fill-opacity="0.75"/>
<circle cx="643.5" cy="450.5" r="4.5" fill="#597AA9" fill-opacity="0.75"/>
<ellipse cx="798.196" cy="598.317" rx="4.19722" ry="5.66624" transform="rotate(-40.7323 798.196 598.317)" fill="white"/>
<path d="M695.341 627.227C700.311 592.696 735.122 569.133 773.095 574.598C811.068 580.063 837.822 612.487 832.852 647.018C827.882 681.549 793.728 700.541 755.756 695.076C717.783 689.611 690.371 661.758 695.341 627.227Z" fill="#FFA767"/>
<path d="M766.093 620.45C765.226 625.272 758.934 628.177 752.038 626.938C745.142 625.699 740.255 620.784 741.122 615.962C741.989 611.139 747.526 612.439 754.421 613.678C761.317 614.917 766.96 615.627 766.093 620.45Z" fill="#FA6B6D"/>
<circle cx="729.494" cy="615.419" r="6.10789" fill="#FF6767"/>
<circle cx="732.2" cy="607.391" r="5.66132" fill="#2F291D"/>
<circle cx="732.2" cy="607.391" r="5.66132" fill="#2F291D"/>
<circle cx="779.725" cy="622.644" r="6.10789" fill="#FF6767"/>
<circle cx="777.582" cy="615.346" r="5.66132" fill="#2F291D"/>
<circle cx="777.582" cy="615.346" r="5.66132" fill="#2F291D"/>
<path d="M816.91 563.496C794.428 563.984 800.101 581.052 789.407 576.893L797.731 580.13C807.255 577.865 817.494 578.014 816.91 563.496Z" fill="#44C2BB"/>
<path d="M821.832 571.697C799.465 569.376 802.964 587.019 792.873 581.558L800.727 585.808C810.46 584.749 820.6 586.174 821.832 571.697Z" fill="#32938D"/>
<rect x="794.332" y="562.178" width="9.6536" height="17.8918" rx="2.9726" transform="rotate(20.2037 794.332 562.178)" fill="#2F291D"/>
<ellipse cx="781.09" cy="574.304" rx="5.24652" ry="4.8268" transform="rotate(21.7321 781.09 574.304)" fill="#FFA767"/>
<ellipse cx="801.87" cy="583.473" rx="5.24652" ry="4.8268" transform="rotate(21.7321 801.87 583.473)" fill="#FFA767"/>
<ellipse cx="797.461" cy="579.702" rx="5.24652" ry="5.8761" transform="rotate(21.7321 797.461 579.702)" fill="#FFA767"/>
<ellipse cx="790.053" cy="576.747" rx="5.24652" ry="5.8761" transform="rotate(21.7321 790.053 576.747)" fill="#FFA767"/>
<ellipse cx="733.169" cy="587.864" rx="4.19722" ry="5.66624" transform="rotate(-115.603 733.169 587.864)" fill="white"/>
<circle cx="757.485" cy="658.013" r="3.77749" fill="#FF8934"/>
<circle cx="768.32" cy="682.893" r="3.77749" fill="#FF8934"/>
<circle cx="815.805" cy="652.733" r="3.77749" fill="#FF8934"/>
<circle cx="732.971" cy="654.483" r="3.77749" fill="#FF8934"/>
<circle cx="724.11" cy="668.897" r="3.77749" fill="#FF8934"/>
<circle cx="803.745" cy="668.805" r="3.77749" fill="#FF8934"/>
<circle cx="746.49" cy="666.603" r="3.77749" fill="#FF8934"/>
<circle cx="770.292" cy="669.183" r="3.77749" fill="#FF8934"/>
<circle cx="787.916" cy="679.352" r="3.77749" fill="#FF8934"/>
<circle cx="744.457" cy="680.731" r="3.77749" fill="#FF8934"/>
<circle cx="788.581" cy="659.945" r="3.77749" fill="#FF8934"/>
<path d="M867.427 556.214C867.427 567.377 858.377 576.427 847.214 576.427L838.593 583.116V574.502C831.741 571.267 827 564.294 827 556.214C827 545.05 836.05 536 847.214 536C858.377 536 867.427 545.05 867.427 556.214Z" fill="white"/>
<path d="M846.936 568.103L848.421 566.713C853.696 561.796 857.178 558.542 857.178 554.573C857.178 551.319 854.699 548.781 851.545 548.781C849.763 548.781 848.052 549.634 846.936 550.972C845.82 549.634 844.109 548.781 842.327 548.781C839.173 548.781 836.695 551.319 836.695 554.573C836.695 558.542 840.177 561.796 845.451 566.713L846.936 568.103Z" fill="#FF6767"/>
</svg>
